# xmcd CD database file
# Copyright (C) 1995-1998 Ti Kan
#
# Track frame offsets:
#	150
#	25935
#	41815
#	59085
#	79420
#	97115
#	122910
#	144360
#	167910
#	190183
#	210688
#	224803
#
# Disc length: 3307 seconds
#
# Revision: 1
# Processed by: cddbd v1.4b42PL0 Copyright (c) Steve Scherf et al.
# Submitted via: CDex 1.30Release
#
DISCID=c10ce90c
DTITLE=Engerling - SO ODER SO
DYEAR=1997
DGENRE=Blues
TTITLE0=Frühprogramm
TTITLE1=Pfeif drauf
TTITLE2=Moll's Party
TTITLE3=Nr. 48
TTITLE4=Hat nichts gebracht
TTITLE5=Narkose Blues
TTITLE6=So oder so
TTITLE7=Die anderen
TTITLE8=Das letzte Lied
TTITLE9=Der Zug oder die weiße Ziege (Bonus)
TTITLE10=Da hilft kein Jammern (Bonus)
TTITLE11=Nachtliedchen (Bonus)
EXTD=YEAR: 1997 ID3G:   0
EXTT0=
EXTT1=
EXTT2=
EXTT3=
EXTT4=
EXTT5=
EXTT6=
EXTT7=
EXTT8=
EXTT9=
EXTT10=
EXTT11=
PLAYORDER=
